<svg xmlns="http://www.w3.org/2000/svg" width="35" height="35" fill="none" viewBox="0 0 35 35"><path fill="#383683" d="M24.7918 10.2083H27.7085V7.29158H24.7918V10.2083ZM26.2502 30.6249C24.2328 30.6249 22.5134 29.9142 21.092 28.4928C19.6697 27.0705 18.9585 25.3506 18.9585 23.3333C18.9585 21.3159 19.6697 19.596 21.092 18.1737C22.5134 16.7523 24.2328 16.0416 26.2502 16.0416C28.2675 16.0416 29.9874 16.7523 31.4097 18.1737C32.8311 19.596 33.5418 21.3159 33.5418 23.3333C33.5418 25.3506 32.8311 27.0705 31.4097 28.4928C29.9874 29.9142 28.2675 30.6249 26.2502 30.6249ZM25.521 27.7083H26.9793V24.0624H30.6252V22.6041H26.9793V18.9583H25.521V22.6041H21.8752V24.0624H25.521V27.7083ZM33.5418 16.2239C32.5939 15.203 31.488 14.4311 30.2241 13.908C28.9602 13.386 27.6356 13.1249 26.2502 13.1249C25.9828 13.1249 25.7339 13.1308 25.5035 13.1424C25.2721 13.1551 25.0349 13.1857 24.7918 13.2343V11.6666L14.5835 4.302V1.45825H33.5418V16.2239ZM1.4585 27.7083V13.1249L11.6668 5.83325L21.8752 13.1249V14.1093C20.1252 14.9357 18.7154 16.1933 17.646 17.882C16.5766 19.5717 16.0418 21.3888 16.0418 23.3333C16.0418 24.0867 16.1211 24.8344 16.2795 25.5762C16.437 26.317 16.6859 27.0277 17.0262 27.7083H14.5835V18.9583H8.75016V27.7083H1.4585Z"/></svg>