<svg xmlns="http://www.w3.org/2000/svg" width="24" height="24" fill="none" viewBox="0 0 24 24"><g clip-path="url(#clip0_550_5729)"><path fill="#5E5858" d="M13.8334 6.66659C15.3062 6.66659 16.5001 5.47268 16.5001 3.99992C16.5001 2.52716 15.3062 1.33325 13.8334 1.33325C12.3607 1.33325 11.1667 2.52716 11.1667 3.99992C11.1667 5.47268 12.3607 6.66659 13.8334 6.66659Z"/><path fill="#5E5858" d="M16.56 17.4866C16.4864 17.437 16.4035 17.4027 16.3164 17.3855C16.2293 17.3684 16.1396 17.3689 16.0527 17.3869C15.9658 17.4049 15.8833 17.4401 15.8101 17.4904C15.737 17.5407 15.6746 17.6051 15.6267 17.6799C14.9822 18.6343 14.1927 19.4823 13.2867 20.1932C13.0667 20.3599 12.2467 20.9932 11.9 20.8599C11.66 20.7866 11.8 20.3132 11.8467 20.1132L12.2 19.0666C12.3467 18.6399 14.9 11.0666 15.18 10.1999C15.5934 8.93322 15.4134 7.68655 13.5267 7.98655C13.0134 8.03989 7.8067 8.71322 7.71336 8.71989C7.62582 8.72558 7.54025 8.74845 7.46154 8.78722C7.38283 8.82598 7.31253 8.87986 7.25465 8.94579C7.19677 9.01172 7.15244 9.0884 7.12419 9.17146C7.09595 9.25453 7.08434 9.34234 7.09003 9.42989C7.09572 9.51743 7.1186 9.603 7.15736 9.68171C7.19612 9.76042 7.25 9.83072 7.31593 9.8886C7.38186 9.94648 7.45855 9.99081 7.54161 10.0191C7.62467 10.0473 7.71248 10.0589 7.80003 10.0532C7.80003 10.0532 9.80003 9.79322 10.02 9.77322C10.1327 9.76222 10.2462 9.78406 10.3467 9.83611C10.4473 9.88816 10.5306 9.96819 10.5867 10.0666C10.7075 10.44 10.6909 10.8443 10.54 11.2066C10.3667 11.8732 7.6267 19.5932 7.54003 20.0399C7.44707 20.4137 7.47288 20.8071 7.61387 21.1656C7.75485 21.524 8.00401 21.8296 8.3267 22.0399C8.93237 22.4436 9.65353 22.6379 10.38 22.5932C11.0864 22.5846 11.785 22.4444 12.44 22.1799C14.1 21.5132 15.8334 19.7399 16.7467 18.3466C16.8253 18.205 16.8498 18.0396 16.8154 17.8814C16.7811 17.7231 16.6903 17.5828 16.56 17.4866Z"/></g><defs><clipPath id="clip0_550_5729"><rect width="24" height="24" fill="#fff"/></clipPath></defs></svg>