<svg xmlns="http://www.w3.org/2000/svg" width="24" height="24" fill="none" viewBox="0 0 24 24"><path fill="#5E5858" d="M23.999 21H21.339C21.714 21.4141 21.9991 21.875 22.1944 22.3828C22.3897 22.8906 22.4913 23.4297 22.4991 24H20.9991C20.9991 23.5859 20.921 23.1992 20.7648 22.8399C20.6085 22.4805 20.3937 22.1602 20.1203 21.8789C19.8468 21.5977 19.5305 21.3829 19.1711 21.2344C18.8117 21.086 18.4211 21.0079 17.9993 21C17.5852 21 17.1985 21.0782 16.8392 21.2344C16.4798 21.3907 16.1595 21.6055 15.8783 21.8789C15.597 22.1524 15.3822 22.4688 15.2338 22.8281C15.0853 23.1875 15.0072 23.5781 14.9994 24H13.4995C13.4995 23.5859 13.4213 23.1992 13.2651 22.8399C13.1088 22.4805 12.894 22.1602 12.6206 21.8789C12.3472 21.5977 12.0308 21.3829 11.6714 21.2344C11.312 21.086 10.9214 21.0079 10.4996 21C10.0855 21 9.69882 21.0782 9.33946 21.2344C8.9801 21.3907 8.6598 21.6055 8.37856 21.8789C8.09733 22.1524 7.88249 22.4688 7.73406 22.8281C7.58563 23.1875 7.50751 23.5781 7.49969 24H5.99976C5.99976 23.5938 6.05444 23.1953 6.16381 22.8047C6.27318 22.4141 6.42552 22.0508 6.62082 21.7149C6.81613 21.3789 7.06221 21.0665 7.35908 20.7774C7.65594 20.4883 7.98014 20.2501 8.33169 20.0626C8.06608 19.7891 7.86296 19.4727 7.72234 19.1134C7.58172 18.754 7.50751 18.3829 7.49969 18.0001C7.49969 17.461 7.6325 16.965 7.89812 16.5118C8.16373 16.0587 8.5309 15.6954 8.99963 15.422V12.0002C8.99963 11.7658 9.05041 11.5432 9.15197 11.3322C9.25353 11.1213 9.40196 10.9455 9.59727 10.8049C9.1676 10.2346 8.64027 9.79319 8.0153 9.48069C7.39032 9.16819 6.71848 9.00804 5.99976 9.00023C5.37478 9.00023 4.79277 9.11741 4.25373 9.35179C3.71469 9.58616 3.23815 9.90647 2.8241 10.3127C2.41006 10.719 2.08585 11.1994 1.85149 11.7541C1.61712 12.3088 1.49994 12.8908 1.49994 13.5002H0C0 12.9299 0.0781218 12.3791 0.234365 11.8478C0.390609 11.3166 0.613256 10.8127 0.902307 10.3361C1.19136 9.85959 1.54681 9.43772 1.96867 9.07054C2.39053 8.70336 2.85145 8.38696 3.35143 8.12134C2.76551 7.69947 2.31241 7.17213 1.99211 6.53933C1.67181 5.90653 1.50775 5.22685 1.49994 4.5003C1.49994 3.88312 1.61712 3.3011 1.85149 2.75423C2.08585 2.20736 2.40615 1.73081 2.81239 1.32456C3.21862 0.918321 3.69516 0.594107 4.24201 0.351923C4.78887 0.10974 5.37478 -0.00744618 5.99976 0.000366205C6.61692 0.000366205 7.19893 0.117552 7.74578 0.351923C8.29263 0.586295 8.76917 0.906602 9.17541 1.31285C9.58164 1.71909 9.90585 2.19955 10.148 2.75423C10.3902 3.30891 10.5074 3.89093 10.4996 4.5003C10.4996 5.22685 10.3394 5.90653 10.0191 6.53933C9.69882 7.17213 9.24181 7.70337 8.64809 8.13305C9.17931 8.39867 9.65976 8.7307 10.0894 9.12913C10.5191 9.52756 10.8863 9.98459 11.191 10.5002H15.3744C15.6166 10.5002 15.8275 10.4651 16.0072 10.3947C16.1868 10.3244 16.3548 10.2307 16.511 10.1135C16.6673 9.99631 16.8274 9.87522 16.9915 9.75022C17.1556 9.62522 17.3352 9.50413 17.5305 9.38694C17.7258 9.26976 17.9524 9.17991 18.2102 9.11741C18.468 9.05492 18.7727 9.01585 19.1242 9.00023H22.4991C22.71 9.00023 22.9053 9.03929 23.085 9.11741C23.2647 9.19554 23.4209 9.30101 23.5537 9.43382C23.6865 9.56663 23.7959 9.72678 23.8818 9.91428C23.9678 10.1018 24.0068 10.2971 23.999 10.5002V21ZM5.99976 7.50025C6.4138 7.50025 6.8005 7.42213 7.15986 7.26588C7.51923 7.10963 7.83952 6.89479 8.12076 6.62136C8.402 6.34793 8.61684 6.03152 8.76527 5.67215C8.9137 5.31278 8.99182 4.92217 8.99963 4.5003C8.99963 4.08624 8.92151 3.69953 8.76527 3.34016C8.60902 2.98079 8.39419 2.66048 8.12076 2.37924C7.84734 2.09799 7.53094 1.88315 7.17158 1.73471C6.81222 1.58628 6.42161 1.50816 5.99976 1.50034C5.58571 1.50034 5.19901 1.57847 4.83965 1.73471C4.48029 1.89096 4.15999 2.1058 3.87875 2.37924C3.59751 2.65267 3.38267 2.96907 3.23424 3.32844C3.08581 3.68781 3.00769 4.07843 2.99988 4.5003C2.99988 4.91435 3.078 5.30107 3.23424 5.66044C3.39049 6.01981 3.60532 6.34011 3.87875 6.62136C4.15217 6.9026 4.46857 7.11744 4.82793 7.26588C5.18729 7.41432 5.5779 7.49244 5.99976 7.50025ZM10.4996 19.5001C10.7105 19.5001 10.9058 19.461 11.0855 19.3829C11.2652 19.3048 11.4214 19.1993 11.5542 19.0665C11.687 18.9337 11.7964 18.7735 11.8823 18.586C11.9683 18.3985 12.0073 18.2032 11.9995 18.0001C11.9995 17.7892 11.9605 17.5938 11.8823 17.4142C11.8042 17.2345 11.6987 17.0782 11.5659 16.9454C11.4331 16.8126 11.273 16.7032 11.0855 16.6173C10.898 16.5314 10.7027 16.4923 10.4996 16.5001C10.2886 16.5001 10.0933 16.5392 9.91366 16.6173C9.73398 16.6954 9.57773 16.8009 9.44493 16.9337C9.31212 17.0665 9.20275 17.2267 9.11682 17.4142C9.03088 17.6017 8.99182 17.797 8.99963 18.0001C8.99963 18.211 9.03869 18.4063 9.11682 18.586C9.19494 18.7657 9.3004 18.922 9.43321 19.0548C9.56602 19.1876 9.72617 19.2969 9.91366 19.3829C10.1012 19.4688 10.2965 19.5079 10.4996 19.5001ZM17.9993 19.5001C18.2102 19.5001 18.4055 19.461 18.5852 19.3829C18.7649 19.3048 18.9211 19.1993 19.0539 19.0665C19.1867 18.9337 19.2961 18.7735 19.382 18.586C19.468 18.3985 19.507 18.2032 19.4992 18.0001C19.4992 17.7892 19.4601 17.5938 19.382 17.4142C19.3039 17.2345 19.1984 17.0782 19.0656 16.9454C18.9328 16.8126 18.7727 16.7032 18.5852 16.6173C18.3977 16.5314 18.2024 16.4923 17.9993 16.5001C17.7883 16.5001 17.593 16.5392 17.4134 16.6173C17.2337 16.6954 17.0774 16.8009 16.9446 16.9337C16.8118 17.0665 16.7024 17.2267 16.6165 17.4142C16.5306 17.6017 16.4915 17.797 16.4993 18.0001C16.4993 18.211 16.5384 18.4063 16.6165 18.586C16.6946 18.7657 16.8001 18.922 16.9329 19.0548C17.0657 19.1876 17.2259 19.2969 17.4134 19.3829C17.6008 19.4688 17.7962 19.5079 17.9993 19.5001ZM22.4991 13.5002H19.1242C18.7727 13.5002 18.468 13.465 18.2102 13.3947C17.9524 13.3244 17.7258 13.2306 17.5305 13.1134C17.3352 12.9963 17.1595 12.8752 17.0032 12.7502C16.847 12.6252 16.6868 12.5041 16.5228 12.3869C16.3587 12.2697 16.1868 12.1799 16.0072 12.1174C15.8275 12.0549 15.6166 12.0158 15.3744 12.0002H10.4996V15.0001C10.9136 15.0001 11.3003 15.0783 11.6597 15.2345C12.019 15.3908 12.3393 15.6056 12.6206 15.879C12.9018 16.1525 13.1167 16.4689 13.2651 16.8282C13.4135 17.1876 13.4916 17.5782 13.4995 18.0001C13.4995 18.3829 13.4291 18.754 13.2885 19.1134C13.1479 19.4727 12.9409 19.7891 12.6675 20.0626C13.3159 20.4219 13.8432 20.9063 14.2494 21.5157C14.6557 20.9063 15.183 20.4219 15.8314 20.0626C15.5658 19.7891 15.3627 19.4727 15.222 19.1134C15.0814 18.754 15.0072 18.3829 14.9994 18.0001C14.9994 17.586 15.0775 17.1993 15.2338 16.84C15.39 16.4806 15.6048 16.1603 15.8783 15.879C16.1517 15.5978 16.4681 15.3829 16.8274 15.2345C17.1868 15.0861 17.5774 15.0079 17.9993 15.0001C18.4133 15.0001 18.8 15.0783 19.1594 15.2345C19.5187 15.3908 19.839 15.6056 20.1203 15.879C20.4015 16.1525 20.6163 16.4689 20.7648 16.8282C20.9132 17.1876 20.9913 17.5782 20.9991 18.0001C20.9991 18.2657 20.964 18.5235 20.8937 18.7735C20.8234 19.0235 20.7179 19.2657 20.5773 19.5001H22.4991V13.5002ZM22.4991 10.5002H19.1242C18.9445 10.5002 18.7844 10.5197 18.6438 10.5588C18.5032 10.5979 18.3703 10.6486 18.2454 10.7111C18.1204 10.7736 17.9993 10.8518 17.8821 10.9455C17.7649 11.0393 17.6399 11.1408 17.5071 11.2502C17.6321 11.3596 17.7532 11.4572 17.8704 11.5432C17.9875 11.6291 18.1125 11.7072 18.2454 11.7775C18.3782 11.8478 18.511 11.9025 18.6438 11.9416C18.7766 11.9807 18.9367 12.0002 19.1242 12.0002H22.4991V10.5002Z"/></svg>